<svg width="42" height="42" viewBox="0 0 42 42" fill="none" xmlns="http://www.w3.org/2000/svg">
<path d="M35 21V38.5H7V21" stroke="white" stroke-width="2" stroke-linecap="round" stroke-linejoin="round"/>
<path d="M35 21V38.5H7V21" stroke="white" stroke-width="2" stroke-linecap="round" stroke-linejoin="round"/>
<path d="M35 21V38.5H7V21" stroke="url(#paint0_linear_52_1726)" stroke-width="2" stroke-linecap="round" stroke-linejoin="round"/>
<path d="M38.5 12.25H3.5V21H38.5V12.25Z" stroke="white" stroke-width="2" stroke-linecap="round" stroke-linejoin="round"/>
<path d="M38.5 12.25H3.5V21H38.5V12.25Z" stroke="white" stroke-width="2" stroke-linecap="round" stroke-linejoin="round"/>
<path d="M38.5 12.25H3.5V21H38.5V12.25Z" stroke="url(#paint1_linear_52_1726)" stroke-width="2" stroke-linecap="round" stroke-linejoin="round"/>
<path d="M21 38.5V12.25" stroke="white" stroke-width="2" stroke-linecap="round" stroke-linejoin="round"/>
<path d="M21 38.5V12.25" stroke="white" stroke-width="2" stroke-linecap="round" stroke-linejoin="round"/>
<path d="M21 38.5V12.25" stroke="url(#paint2_linear_52_1726)" stroke-width="2" stroke-linecap="round" stroke-linejoin="round"/>
<path d="M21 12.25H13.125C11.9647 12.25 10.8519 11.7891 10.0314 10.9686C9.21094 10.1481 8.75 9.03532 8.75 7.875C8.75 6.71468 9.21094 5.60188 10.0314 4.78141C10.8519 3.96094 11.9647 3.5 13.125 3.5C19.25 3.5 21 12.25 21 12.25Z" stroke="white" stroke-width="2" stroke-linecap="round" stroke-linejoin="round"/>
<path d="M21 12.25H13.125C11.9647 12.25 10.8519 11.7891 10.0314 10.9686C9.21094 10.1481 8.75 9.03532 8.75 7.875C8.75 6.71468 9.21094 5.60188 10.0314 4.78141C10.8519 3.96094 11.9647 3.5 13.125 3.5C19.25 3.5 21 12.25 21 12.25Z" stroke="white" stroke-width="2" stroke-linecap="round" stroke-linejoin="round"/>
<path d="M21 12.25H13.125C11.9647 12.25 10.8519 11.7891 10.0314 10.9686C9.21094 10.1481 8.75 9.03532 8.75 7.875C8.75 6.71468 9.21094 5.60188 10.0314 4.78141C10.8519 3.96094 11.9647 3.5 13.125 3.5C19.25 3.5 21 12.25 21 12.25Z" stroke="url(#paint3_linear_52_1726)" stroke-width="2" stroke-linecap="round" stroke-linejoin="round"/>
<path d="M21 12.25H28.875C30.0353 12.25 31.1481 11.7891 31.9686 10.9686C32.7891 10.1481 33.25 9.03532 33.25 7.875C33.25 6.71468 32.7891 5.60188 31.9686 4.78141C31.1481 3.96094 30.0353 3.5 28.875 3.5C22.75 3.5 21 12.25 21 12.25Z" stroke="white" stroke-width="2" stroke-linecap="round" stroke-linejoin="round"/>
<path d="M21 12.25H28.875C30.0353 12.25 31.1481 11.7891 31.9686 10.9686C32.7891 10.1481 33.25 9.03532 33.25 7.875C33.25 6.71468 32.7891 5.60188 31.9686 4.78141C31.1481 3.96094 30.0353 3.5 28.875 3.5C22.75 3.5 21 12.25 21 12.25Z" stroke="white" stroke-width="2" stroke-linecap="round" stroke-linejoin="round"/>
<path d="M21 12.25H28.875C30.0353 12.25 31.1481 11.7891 31.9686 10.9686C32.7891 10.1481 33.25 9.03532 33.25 7.875C33.25 6.71468 32.7891 5.60188 31.9686 4.78141C31.1481 3.96094 30.0353 3.5 28.875 3.5C22.75 3.5 21 12.25 21 12.25Z" stroke="url(#paint4_linear_52_1726)" stroke-width="2" stroke-linecap="round" stroke-linejoin="round"/>
<defs>
<linearGradient id="paint0_linear_52_1726" x1="10.5805" y1="21.0442" x2="33.9223" y2="22.5392" gradientUnits="userSpaceOnUse">
<stop stop-color="#21AFF5"/>
<stop offset="1" stop-color="#DE68FB"/>
</linearGradient>
<linearGradient id="paint1_linear_52_1726" x1="7.97564" y1="12.2721" x2="36.5402" y2="16.8459" gradientUnits="userSpaceOnUse">
<stop stop-color="#21AFF5"/>
<stop offset="1" stop-color="#DE68FB"/>
</linearGradient>
<linearGradient id="paint2_linear_52_1726" x1="21.1279" y1="12.3163" x2="21.9649" y2="12.3176" gradientUnits="userSpaceOnUse">
<stop stop-color="#21AFF5"/>
<stop offset="1" stop-color="#DE68FB"/>
</linearGradient>
<linearGradient id="paint3_linear_52_1726" x1="10.3165" y1="3.52209" x2="20.5383" y2="4.09495" gradientUnits="userSpaceOnUse">
<stop stop-color="#21AFF5"/>
<stop offset="1" stop-color="#DE68FB"/>
</linearGradient>
<linearGradient id="paint4_linear_52_1726" x1="22.5665" y1="3.52209" x2="32.7883" y2="4.09495" gradientUnits="userSpaceOnUse">
<stop stop-color="#21AFF5"/>
<stop offset="1" stop-color="#DE68FB"/>
</linearGradient>
</defs>
</svg>
