<svg width="36" height="26" viewBox="0 0 36 26" fill="none" xmlns="http://www.w3.org/2000/svg">
<path d="M0 5.33C0 3.38696 0 2.41568 0.404883 1.68443C0.704104 1.144 1.152 0.699213 1.69621 0.402071C2.43257 0 3.41065 0 5.36727 0H30.6327C32.5893 0 33.5674 0 34.3038 0.402071C34.848 0.699213 35.2959 1.144 35.5951 1.68443C36 2.41568 36 3.38696 36 5.33V20.67C36 22.613 36 23.5843 35.5951 24.3156C35.2959 24.856 34.848 25.3008 34.3038 25.5979C33.5674 26 32.5893 26 30.6327 26H5.36727C3.41065 26 2.43257 26 1.69621 25.5979C1.152 25.3008 0.704104 24.856 0.404883 24.3156C0 23.5843 0 22.613 0 20.67V5.33Z" fill="#EA003D"/>
<path d="M20.0742 18.9275L21.8883 15.8052H18.2593L20.0742 18.9275Z" fill="white"/>
<path d="M15.5613 18.9275L17.3754 15.8052H13.7473L15.5613 18.9275Z" fill="white"/>
<path d="M17.8182 15.9873L19.6331 19.1096H16.0042L17.8182 15.9873Z" fill="white"/>
<path d="M22.336 15.0361L24.15 11.9138H20.521L22.336 15.0361Z" fill="white"/>
<path d="M20.1509 12.2143L21.965 15.3367H18.3369L20.1509 12.2143Z" fill="white"/>
<path d="M13.3004 15.0374L11.4863 11.915H15.1153L13.3004 15.0374Z" fill="white"/>
<path d="M15.4861 12.2143L13.6711 15.3367H17.3001L15.4861 12.2143Z" fill="white"/>
<path d="M9.68816 13.0136L6.54541 11.2103V14.8159L9.68816 13.0136Z" fill="white"/>
<path d="M9.68816 17.6976L6.54541 15.8953V19.5L9.68816 17.6976Z" fill="white"/>
<path d="M6.5459 15.3556L9.68772 13.5532V17.158L6.5459 15.3556Z" fill="white"/>
<path d="M9.68816 8.30336L6.54541 6.50007V10.1057L9.68816 8.30336Z" fill="white"/>
<path d="M29.4545 13.0136L26.3118 11.2103V14.8159L29.4545 13.0136Z" fill="white"/>
<path d="M29.4545 17.6976L26.3118 15.8953V19.5L29.4545 17.6976Z" fill="white"/>
<path d="M26.3123 15.3556L29.4541 13.5532V17.158L26.3123 15.3556Z" fill="white"/>
<path d="M29.4545 8.30336L26.3118 6.50007V10.1057L29.4545 8.30336Z" fill="white"/>
</svg>
