<svg width="474" height="274" viewBox="0 0 474 274" fill="none" xmlns="http://www.w3.org/2000/svg">
<g opacity="0.12">
<path d="M282.675 261.478L320.577 195.783H244.752L282.675 261.478Z" fill="#EA003D"/>
<path d="M188.383 261.478L226.286 195.783H150.48L188.383 261.478Z" fill="#EA003D"/>
<path d="M235.533 199.618L273.456 265.312H197.631L235.533 199.618Z" fill="#EA003D"/>
<path d="M329.93 179.604L367.833 113.909H292.008L329.93 179.604Z" fill="#EA003D"/>
<path d="M284.277 120.234L322.18 185.928H246.375L284.277 120.234Z" fill="#EA003D"/>
<path d="M141.138 179.632L103.235 113.938H179.06L141.138 179.632Z" fill="#EA003D"/>
<path d="M186.809 120.234L148.887 185.928H224.711L186.809 120.234Z" fill="#EA003D"/>
<path d="M65.6654 137.049L0 99.107V174.971L65.6654 137.049Z" fill="#EA003D"/>
<path d="M65.6654 235.604L0 197.682V273.526L65.6654 235.604Z" fill="#EA003D"/>
<path d="M0.0108643 186.326L65.6567 148.404V224.248L0.0108643 186.326Z" fill="#EA003D"/>
<path d="M65.6654 37.9418L0 0.000106812V75.864L65.6654 37.9418Z" fill="#EA003D"/>
<path d="M478.667 137.049L413.002 99.107V174.971L478.667 137.049Z" fill="#EA003D"/>
<path d="M478.667 235.605L413.002 197.682V273.527L478.667 235.605Z" fill="#EA003D"/>
<path d="M413.01 186.326L478.656 148.404V224.248L413.01 186.326Z" fill="#EA003D"/>
<path d="M478.667 37.9418L413.002 0.000106812V75.864L478.667 37.9418Z" fill="#EA003D"/>
</g>
</svg>
