<svg width="1120" height="372" viewBox="0 0 1120 372" fill="none" xmlns="http://www.w3.org/2000/svg">
<g opacity="0.12">
<path d="M772.396 420.742L860.976 267.21H683.77L772.396 420.742Z" fill="#EA003D"/>
<path d="M665.702 281.992L754.283 435.523H577.122L665.702 281.992Z" fill="#EA003D"/>
<path d="M331.179 420.809L242.598 267.277H419.805L331.179 420.809Z" fill="#EA003D"/>
<path d="M437.914 281.992L349.288 435.523H526.494L437.914 281.992Z" fill="#EA003D"/>
<path d="M154.796 321.289L1.33325 232.617V409.915L154.796 321.289Z" fill="#EA003D"/>
<path d="M1.35864 436.452L154.776 347.826V525.078L1.35864 436.452Z" fill="#EA003D"/>
<path d="M154.796 89.6715L1.33325 0.999929V178.297L154.796 89.6715Z" fill="#EA003D"/>
<path d="M1120 321.289L966.537 232.617V409.915L1120 321.289Z" fill="#EA003D"/>
<path d="M966.558 436.452L1119.98 347.826V525.078L966.558 436.452Z" fill="#EA003D"/>
<path d="M1120 89.6715L966.537 0.999929V178.297L1120 89.6715Z" fill="#EA003D"/>
</g>
</svg>
