<svg width="103" height="75" viewBox="0 0 103 75" fill="none" xmlns="http://www.w3.org/2000/svg">
<g clip-path="url(#clip0_51_184)">
<path d="M0.166748 15.3068C0.166748 9.72675 0.166748 6.93742 1.32141 4.83742C2.17475 3.28542 3.45208 2.00808 5.00408 1.15475C7.10408 8.39233e-05 9.89341 8.39233e-05 15.4734 8.39233e-05H87.5267C93.1067 8.39233e-05 95.8961 8.39233e-05 97.9961 1.15475C99.5481 2.00808 100.825 3.28542 101.679 4.83742C102.833 6.93742 102.833 9.72675 102.833 15.3068V59.3601C102.833 64.9401 102.833 67.7294 101.679 69.8294C100.825 71.3814 99.5481 72.6587 97.9961 73.5121C95.8961 74.6667 93.1067 74.6667 87.5267 74.6667H15.4734C9.89341 74.6667 7.10408 74.6667 5.00408 73.5121C3.45208 72.6587 2.17475 71.3814 1.32141 69.8294C0.166748 67.7294 0.166748 64.9401 0.166748 59.3601V15.3068Z" fill="#EA003D"/>
<path d="M57.4155 54.3557L62.5888 45.389H52.2395L57.4155 54.3557Z" fill="white"/>
<path d="M44.5456 54.3557L49.719 45.389H39.3723L44.5456 54.3557Z" fill="white"/>
<path d="M50.9812 45.9125L56.1572 54.8792H45.8079L50.9812 45.9125Z" fill="white"/>
<path d="M63.8655 43.1807L69.0388 34.214H58.6895L63.8655 43.1807Z" fill="white"/>
<path d="M57.6343 35.0775L62.8076 44.0442H52.4609L57.6343 35.0775Z" fill="white"/>
<path d="M38.0972 43.1846L32.9238 34.2179H43.2732L38.0972 43.1846Z" fill="white"/>
<path d="M44.3308 35.0775L39.1548 44.0442H49.5041L44.3308 35.0775Z" fill="white"/>
<path d="M27.7959 37.3726L18.8333 32.1939V42.5486L27.7959 37.3726Z" fill="white"/>
<path d="M27.7959 50.8242L18.8333 45.6482V56.0002L27.7959 50.8242Z" fill="white"/>
<path d="M18.8347 44.0982L27.7947 38.9222V49.2742L18.8347 44.0982Z" fill="white"/>
<path d="M27.7959 23.8452L18.8333 18.6666V29.0212L27.7959 23.8452Z" fill="white"/>
<path d="M84.1665 37.3726L75.2039 32.1939V42.5486L84.1665 37.3726Z" fill="white"/>
<path d="M84.1665 50.8242L75.2039 45.6482V56.0002L84.1665 50.8242Z" fill="white"/>
<path d="M75.2051 44.0982L84.1651 38.9222V49.2742L75.2051 44.0982Z" fill="white"/>
<path d="M84.1665 23.8452L75.2039 18.6666V29.0212L84.1665 23.8452Z" fill="white"/>
</g>
<defs>
<clipPath id="clip0_51_184">
<rect x="0.166748" width="102.667" height="74.6667" rx="5" fill="white"/>
</clipPath>
</defs>
</svg>
