<svg width="85" height="26" viewBox="0 0 85 26" fill="none" xmlns="http://www.w3.org/2000/svg">
<rect width="85" height="26" fill="#FFC915"/>
<path d="M33.7767 19.9615C32.333 19.7925 31.1661 19.2532 30.2286 18.3218C29.0693 17.1708 28.4539 15.6188 28.4539 13.8455C28.4539 10.281 30.9918 7.66775 34.4471 7.67344C35.3582 7.67506 36.2668 7.88992 37.069 8.29446C37.4514 8.48739 37.9406 8.81679 38.1993 9.05561C38.2973 9.14618 38.3869 9.22011 38.3982 9.22011C38.4094 9.22011 38.419 8.91833 38.419 8.54994V7.87895H39.9153V19.812H38.419V18.4307L38.2825 18.5452C37.279 19.386 36.3656 19.7954 35.1549 19.9477C34.8898 19.981 34.0169 19.9899 33.7767 19.9615ZM35.1565 18.3819C36.9653 18.0749 38.2194 16.7829 38.5769 14.8577C38.6601 14.4113 38.6621 13.2882 38.5809 12.8484C38.4861 12.3354 38.3592 11.9418 38.1483 11.5072C37.5257 10.2245 36.4287 9.44715 34.9669 9.25219C34.4608 9.18436 33.7217 9.22782 33.238 9.35333C31.8277 9.71928 30.7399 10.7526 30.2474 12.1948C30.043 12.7939 30.0016 13.0718 30.0016 13.8455C30.0016 14.4405 30.0124 14.5815 30.0807 14.8914C30.4905 16.7423 31.804 18.0627 33.5529 18.3832C33.9161 18.4494 34.762 18.449 35.1565 18.3819ZM20.7257 19.9136C19.7255 19.8076 18.8016 19.479 18.0115 18.9489C17.5696 18.6524 16.8787 17.9498 16.5775 17.4908C15.8416 16.369 15.4885 15.023 15.5403 13.536C15.5877 12.1843 15.9597 11.03 16.6819 9.99425C16.7872 9.84276 17.0575 9.53245 17.2816 9.30418C18.083 8.49023 19.0479 7.97481 20.2108 7.73964C20.6791 7.645 21.7272 7.60926 22.2144 7.671C24.4591 7.95694 26.1405 9.4768 26.7182 11.7428C26.8588 12.2948 26.9222 12.7647 26.9467 13.4414L26.968 14.0344H17.0503L17.0728 14.3869C17.1732 15.9543 18.0726 17.3584 19.4154 18.044C20.0501 18.3681 20.6554 18.5091 21.4166 18.5099C22.7221 18.5115 23.7083 18.1037 24.5298 17.224C24.735 17.0042 25.1982 16.3751 25.2781 16.2082C25.2881 16.1874 26.5836 17.0448 26.5836 17.0721C26.5836 17.1553 26.053 17.8694 25.7601 18.1793C24.6788 19.3246 23.3387 19.8892 21.601 19.931C21.2829 19.9392 20.8892 19.931 20.7257 19.9136ZM25.4103 12.5474C25.1287 10.7546 23.9188 9.45487 22.2132 9.11329C21.8541 9.04139 20.9258 9.04952 20.5639 9.12791C19.7042 9.31434 18.9872 9.69044 18.3915 10.268C17.7609 10.8797 17.3407 11.6477 17.1157 12.599L17.0932 12.6936H25.4328L25.4103 12.5474ZM70.4053 19.9111C67.7996 19.6658 65.865 17.8803 65.3408 15.2382C64.9845 13.4401 65.3151 11.5653 66.2338 10.1795C67.1135 8.85131 68.3672 8.03005 69.9892 7.7173C70.4471 7.62916 71.8088 7.62957 72.2419 7.71852C73.324 7.94069 74.219 8.41712 74.9641 9.16852C76.0387 10.2514 76.6119 11.783 76.6119 13.5689V14.0344L71.6719 14.0433L66.7323 14.0518L66.7411 14.3272C66.7773 15.4104 67.2834 16.5432 68.0783 17.3178C68.6945 17.9185 69.4421 18.2987 70.3141 18.4559C70.7018 18.5253 71.5345 18.5249 71.9245 18.4559C73.1332 18.239 74.0085 17.6383 74.7573 16.5107C74.8641 16.3499 74.9641 16.222 74.9798 16.2264C75.02 16.237 76.1788 16.9908 76.2283 17.0388C76.2805 17.0887 75.9615 17.5749 75.5884 18.0144C74.3965 19.4152 72.5014 20.1089 70.4053 19.9111ZM75.081 12.599C75.081 12.547 75.0513 12.3792 75.0151 12.2261C74.6062 10.5016 73.402 9.35333 71.7317 9.0946C71.095 8.9959 70.3354 9.06373 69.6911 9.27738C68.2977 9.73918 67.2203 10.9069 66.8504 12.3553C66.8134 12.5003 66.7833 12.6355 66.7833 12.6558C66.7833 12.6827 67.9763 12.6936 70.9324 12.6936H75.0818L75.0814 12.599H75.081ZM8.38818 13.828V7.84484H15.4624V9.25422L12.6819 9.26316L9.90176 9.27169L9.89292 14.5421L9.88448 19.812H8.38818V13.828ZM42.534 11.4207V3.0647H44.0644V19.7775H42.534V11.4207ZM46.6834 13.8106V7.84402H48.1797L48.1814 8.6267L48.183 9.40897L48.3091 9.25463C48.7248 8.74368 49.1534 8.38422 49.6387 8.13931C50.2171 7.84687 50.7261 7.71933 51.4447 7.6844C52.2738 7.645 52.9482 7.77498 53.6046 8.10072C54.3007 8.44596 54.8016 8.94229 55.2736 9.75502C55.3058 9.81107 55.3258 9.79564 55.4483 9.61368C56.0915 8.66123 57.0483 8.03127 58.2469 7.77132C58.7221 7.66816 59.7661 7.6576 60.2265 7.75101C61.068 7.92282 61.7308 8.26847 62.2791 8.82247C62.8628 9.41222 63.2211 10.1226 63.4412 11.1246L63.5324 11.5409L63.5436 15.6594L63.5545 19.7771H62.0558V16.1013C62.0558 13.8093 62.0425 12.2915 62.0204 12.0693C61.8806 10.6575 61.158 9.63724 60.0284 9.25625C59.5852 9.10862 59.1156 9.05957 58.6518 9.11247C57.1949 9.2721 56.2533 10.069 55.9244 11.4207C55.8545 11.7075 55.8529 11.7911 55.8412 15.7451L55.8292 19.7771H54.3357V16.1716C54.3357 14.0165 54.3216 12.3914 54.3007 12.1323C54.1617 10.3988 53.2206 9.30012 51.717 9.11532C50.3453 8.94635 48.9213 9.75624 48.4047 10.9999C48.1886 11.5186 48.201 11.2497 48.1886 15.7114L48.1773 19.7775H46.683V13.811L46.6834 13.8106Z" fill="black"/>
</svg>
