<svg width="595" height="41" viewBox="0 0 595 41" fill="none" xmlns="http://www.w3.org/2000/svg">
<path d="M209.934 22.3254C205.733 21.2707 202.105 20.3597 202.105 17.3351C202.105 14.3694 205.448 13.0194 208.554 13.0194C210.267 13.0194 214.421 13.4037 216.023 16.9662L216.205 17.3695L220.551 15.0538L220.365 14.6919C218.339 10.7259 213.924 8.35775 208.554 8.35775C201.945 8.35775 196.96 12.2175 196.96 17.3351C196.96 23.7097 202.944 25.2125 208.223 26.5371C212.423 27.5918 216.051 28.5029 216.051 31.5274C216.051 35.4782 211.082 35.9038 208.947 35.9038C204.793 35.9038 201.508 34.0785 200.378 31.1391L200.21 30.7003L195.799 33.0786L195.949 33.4263C197.825 37.8291 202.807 40.5654 208.947 40.5654C216.158 40.5654 221.196 36.8483 221.196 31.5274C221.196 25.1538 215.212 23.6511 209.934 22.3254Z" fill="white"/>
<path d="M257.608 8.35761C253.526 8.35761 249.973 10.1889 247.748 13.4066C245.874 10.1444 242.591 8.35761 238.429 8.35761C234.722 8.35761 231.723 9.7763 229.498 12.5784V9.07666H224.636V39.8464H229.498V22.844C229.498 15.5998 233.828 13.0192 237.879 13.0192C242.159 13.0192 244.612 15.8364 244.612 20.7489V39.8464H249.471V22.844C249.471 16.5078 252.339 13.0192 257.547 13.0192C261.954 13.0192 264.585 15.9083 264.585 20.7489V39.8464H269.445V20.7489C269.445 13.2214 264.797 8.35761 257.608 8.35761Z" fill="white"/>
<path d="M288.037 35.9038C281.52 35.9038 276.418 30.8782 276.418 24.461C276.418 18.045 281.52 13.0194 288.037 13.0194C294.553 13.0194 299.655 18.045 299.655 24.461C299.655 30.8782 294.553 35.9038 288.037 35.9038ZM299.655 14.0507C296.852 10.4164 292.577 8.35775 287.731 8.35775C278.812 8.35775 271.556 15.5817 271.556 24.461C271.556 33.3405 278.812 40.5654 287.731 40.5654C292.575 40.5654 296.85 38.5066 299.655 34.8725V39.8464H304.515V9.0766H299.655V14.0507Z" fill="white"/>
<path d="M314.538 12.9476V9.07666H309.676V39.8464H314.538V22.7845C314.538 14.1873 320.998 13.2591 323.774 13.2591H324.189V8.59743H323.774C319.572 8.59743 316.534 10.0241 314.538 12.9476Z" fill="white"/>
<path d="M337.691 0.552372L332.829 1.99528V9.07672H326.416V13.7384H332.829V31.4679C332.829 34.5611 333.642 36.7685 335.314 38.2156C336.823 39.521 339.04 40.1692 342.037 40.1692C343.268 40.1692 344.631 40.0599 346.13 39.8415L346.486 39.79V35.5278L345.117 35.5844C341.853 35.7239 339.713 35.818 338.629 34.7805C337.988 34.1667 337.691 33.114 337.691 31.4679V13.7384H346.486V9.07672H337.691V0.552372Z" fill="white"/>
<path d="M363.705 13.6331H372.539V39.8767H377.372V13.6331H386.248V8.97041H363.705V13.6331Z" fill="white"/>
<path d="M402.003 33.0988L393.618 8.97066H388.382L399.418 39.877H404.549L415.632 8.97066H410.349L402.003 33.0988Z" fill="white"/>
<path d="M445.112 22.0443L444.898 21.9796C440.244 20.6316 438.299 19.6709 438.299 17.2097C438.299 14.7374 440.481 13.1396 443.856 13.1396C448.057 13.1396 450.029 15.5322 450.945 17.5394L451.113 17.9095L455.445 15.62L455.285 15.2875C453.232 11.0495 448.961 8.51938 443.856 8.51938C437.573 8.51938 433.184 12.1639 433.184 17.3806C433.184 23.2466 438.554 24.826 443.751 26.355C448.807 27.7929 451.19 28.7668 451.19 31.4676C451.19 34.1231 448.745 35.7087 444.651 35.7087C440.37 35.7087 437.47 33.9169 436.266 30.5262L436.117 30.1096L431.684 32.4435L431.805 32.761C433.639 37.5268 438.408 40.3713 444.558 40.3713C451.556 40.3713 456.258 36.7583 456.258 31.3818C456.258 25.3883 450.844 23.7632 445.112 22.0443Z" fill="white"/>
<path d="M463.642 9.07559H458.527V39.8149H477.766V35.2808H463.642V9.07559Z" fill="white"/>
<path d="M484.588 26.5411H498.384V22.0504H484.588V13.611H499.553V9.07564H479.473V39.8152H499.788V35.2809H484.588V26.5411Z" fill="white"/>
<path d="M515.534 35.2808H507.497V13.6107H515.534C521.897 13.6107 526.516 18.1673 526.516 24.4458C526.516 30.7243 521.897 35.2808 515.534 35.2808ZM515.534 9.0756H502.383V39.8149H515.534C524.605 39.8149 531.443 33.2079 531.443 24.4458C531.443 15.6838 524.605 9.0756 515.534 9.0756Z" fill="white"/>
<path d="M563.326 21.1504H558.213V29.6283H547.233L558.973 9.07564H553.414L541.567 29.8215L541.516 29.9094V34.12H558.213V39.8152H563.326V34.12H567.302V29.6283H563.326V21.1504Z" fill="white"/>
<path d="M578.953 24.0202L593.789 9.07564H587.378L574.263 22.0707V9.07564H569.148V39.8152H574.263V25.982L587.845 39.8152H594.24L578.953 24.0202Z" fill="white"/>
<path d="M106.386 20.1201C106.386 16.0081 110.187 13.2458 113.737 13.2458C118.051 13.2458 120.731 16.2908 120.731 21.192V39.7996H125.617V20.5963C125.617 17.0429 127.579 13.2458 133.087 13.2458C137.371 13.2458 140.14 16.3651 140.14 21.192V39.7996H145.026V21.192C145.026 13.4602 140.679 8.65725 133.682 8.65725C129.562 8.65725 125.997 10.4295 123.773 13.5505C122.313 11.1685 119.596 8.65725 114.63 8.65725C111.274 8.65725 108.4 9.85133 106.386 12.0511V9.07423H101.5V39.7996H106.386V20.1201Z" fill="white"/>
<path d="M25.8662 21.16C27.0397 16.3993 31.1536 13.1265 36.0717 13.1265C40.9415 13.1265 44.6825 16.3302 45.5423 21.16H25.8662ZM50.5116 23.9868C50.4824 19.3399 49.0246 15.407 46.2962 12.6134C43.7294 9.98542 40.1406 8.53811 36.1904 8.53811C27.2372 8.53811 20.7389 15.212 20.7389 24.4069C20.7389 33.7152 27.0439 40.2163 36.0717 40.2163C42.0543 40.2163 46.7151 37.6378 49.5497 32.7591L49.7937 32.3393L45.6057 29.6471L45.3381 30.1039C43.1291 33.8725 40.1846 35.6277 36.0717 35.6277C30.3437 35.6277 25.9417 31.3394 25.6408 25.5696H50.5116V23.9868Z" fill="white"/>
<path d="M4.88604 13.6627H18.8772V9.0741H0V39.8589H4.88604V13.6627Z" fill="white"/>
<path d="M154.32 21.16C155.494 16.3993 159.608 13.1265 164.526 13.1265C169.395 13.1265 173.136 16.3302 173.996 21.16H154.32ZM164.526 40.2163C170.508 40.2163 175.169 37.6378 178.003 32.7591L178.248 32.3393L174.06 29.6471L173.792 30.1039C171.583 33.8725 168.638 35.6277 164.526 35.6277C158.797 35.6277 154.395 31.3394 154.095 25.5696H178.965V23.9868C178.936 19.3399 177.478 15.407 174.75 12.6134C172.183 9.98542 168.595 8.53811 164.645 8.53811C155.691 8.53811 149.193 15.212 149.193 24.4069C149.193 33.7152 155.498 40.2163 164.526 40.2163Z" fill="white"/>
<path d="M95.161 -7.24792e-05H90.275V39.7993H95.161V-7.24792e-05Z" fill="white"/>
<path d="M58.9302 24.5258C58.9302 18.2647 63.4213 13.5432 69.3769 13.5432C75.5543 13.5432 79.7049 17.9569 79.7049 24.5258C79.7049 31.0594 75.5543 35.4492 69.3769 35.4492C63.4213 35.4492 58.9302 30.7531 58.9302 24.5258ZM69.6151 40.3352C73.1829 40.3352 76.578 39.1483 79.1095 37.047V39.8588H83.9359V9.13364H79.1095V11.9596C76.533 9.84949 73.1363 8.65721 69.6151 8.65721C65.2471 8.65721 61.2691 10.2823 58.4141 13.2328C55.5961 16.1452 54.0441 20.1559 54.0441 24.5258C54.0441 28.8924 55.5963 32.893 58.4153 35.7905C61.2663 38.7211 65.2437 40.3352 69.6151 40.3352Z" fill="white"/>
</svg>
