<svg width="493" height="34" viewBox="0 0 493 34" fill="none" xmlns="http://www.w3.org/2000/svg">
<path d="M174.09 18.5137C170.606 17.639 167.598 16.8836 167.598 14.3754C167.598 11.9161 170.37 10.7965 172.946 10.7965C174.366 10.7965 177.811 11.1153 179.14 14.0695L179.29 14.404L182.895 12.4836L182.74 12.1835C181.06 8.89465 177.399 6.93084 172.946 6.93084C167.465 6.93084 163.331 10.1315 163.331 14.3754C163.331 19.6616 168.294 20.9078 172.671 22.0062C176.154 22.8809 179.163 23.6364 179.163 26.1445C179.163 29.4208 175.042 29.7737 173.271 29.7737C169.827 29.7737 167.103 28.2601 166.165 25.8225L166.026 25.4586L162.368 27.4309L162.493 27.7192C164.049 31.3703 168.18 33.6394 173.271 33.6394C179.252 33.6394 183.429 30.5569 183.429 26.1445C183.429 20.8592 178.467 19.613 174.09 18.5137Z" fill="white"/>
<path d="M213.624 6.93076C210.24 6.93076 207.293 8.44936 205.448 11.1177C203.893 8.4125 201.172 6.93076 197.72 6.93076C194.646 6.93076 192.159 8.10722 190.314 10.4309V7.52704H186.282V33.0432H190.314V18.9437C190.314 12.9364 193.905 10.7965 197.264 10.7965C200.813 10.7965 202.847 13.1326 202.847 17.2064V33.0432H206.877V18.9437C206.877 13.6894 209.255 10.7965 213.574 10.7965C217.228 10.7965 219.41 13.1922 219.41 17.2064V33.0432H223.44V17.2064C223.44 10.9641 219.586 6.93076 213.624 6.93076Z" fill="white"/>
<path d="M238.858 29.7737C233.454 29.7737 229.223 25.6062 229.223 20.2846C229.223 14.9641 233.454 10.7965 238.858 10.7965C244.261 10.7965 248.493 14.9641 248.493 20.2846C248.493 25.6062 244.261 29.7737 238.858 29.7737ZM248.493 11.6518C246.168 8.63801 242.623 6.93084 238.604 6.93084C231.208 6.93084 225.191 12.9214 225.191 20.2846C225.191 27.648 231.208 33.6394 238.604 33.6394C242.621 33.6394 246.166 31.9321 248.493 28.9184V33.0431H252.523V7.52695H248.493V11.6518Z" fill="white"/>
<path d="M260.834 10.737V7.52704H256.802V33.0432H260.834V18.8944C260.834 11.7651 266.191 10.9953 268.494 10.9953H268.837V7.12963H268.494C265.009 7.12963 262.49 8.31273 260.834 10.737Z" fill="white"/>
<path d="M280.034 0.458111L276.002 1.65466V7.52702H270.684V11.3927H276.002V26.0951C276.002 28.6602 276.676 30.4907 278.063 31.6908C279.314 32.7733 281.152 33.3108 283.638 33.3108C284.659 33.3108 285.789 33.2202 287.032 33.039L287.327 32.9964V29.4618L286.192 29.5088C283.485 29.6245 281.711 29.7025 280.812 28.8422C280.28 28.3332 280.034 27.4602 280.034 26.0951V11.3927H287.327V7.52702H280.034V0.458111Z" fill="white"/>
<path d="M301.606 11.3055H308.932V33.0684H312.94V11.3055H320.301V7.43898H301.606V11.3055Z" fill="white"/>
<path d="M333.365 27.4475L326.412 7.43898H322.07L331.222 33.0684H335.477L344.667 7.43898H340.287L333.365 27.4475Z" fill="white"/>
<path d="M369.114 18.2806L368.936 18.227C365.077 17.1091 363.464 16.3125 363.464 14.2715C363.464 12.2213 365.274 10.8963 368.073 10.8963C371.556 10.8963 373.191 12.8804 373.951 14.5449L374.09 14.8518L377.683 12.9532L377.55 12.6775C375.848 9.16304 372.306 7.06493 368.073 7.06493C362.862 7.06493 359.223 10.0872 359.223 14.4132C359.223 19.2776 363.675 20.5874 367.986 21.8553C372.178 23.0477 374.154 23.8553 374.154 26.095C374.154 28.2971 372.126 29.612 368.732 29.612C365.181 29.612 362.777 28.1261 361.779 25.3143L361.655 24.9689L357.978 26.9043L358.079 27.1676C359.6 31.1196 363.555 33.4785 368.655 33.4785C374.458 33.4785 378.357 30.4823 378.357 26.0238C378.357 21.0537 373.867 19.7061 369.114 18.2806Z" fill="white"/>
<path d="M384.48 7.52615H380.238V33.0171H396.193V29.2571H384.48V7.52615Z" fill="white"/>
<path d="M401.85 22.0097H413.291V18.2857H401.85V11.2872H414.26V7.52623H397.608V33.0173H414.455V29.2572H401.85V22.0097Z" fill="white"/>
<path d="M427.513 29.2571H420.848V11.287H427.513C432.789 11.287 436.619 15.0655 436.619 20.272C436.619 25.4786 432.789 29.2571 427.513 29.2571ZM427.513 7.52615H416.606V33.0171H427.513C435.034 33.0171 440.705 27.5382 440.705 20.272C440.705 13.0061 435.034 7.52615 427.513 7.52615Z" fill="white"/>
<path d="M467.144 17.5394H462.904V24.5698H453.799L463.535 7.52623H458.924L449.1 24.73L449.058 24.8028V28.2945H462.904V33.0173H467.144V28.2945H470.441V24.5698H467.144V17.5394Z" fill="white"/>
<path d="M480.103 19.9192L492.406 7.52623H487.09L476.214 18.3025V7.52623H471.972V33.0173H476.214V21.546L487.477 33.0173H492.78L480.103 19.9192Z" fill="white"/>
<path d="M88.2217 16.685C88.2217 13.2751 91.3738 10.9844 94.3175 10.9844C97.8947 10.9844 100.117 13.5095 100.117 17.5739V33.0044H104.169V17.0799C104.169 14.1332 105.796 10.9844 110.364 10.9844C113.917 10.9844 116.212 13.5711 116.212 17.5739V33.0044H120.264V17.5739C120.264 11.1622 116.66 7.17929 110.857 7.17929C107.44 7.17929 104.485 8.64892 102.64 11.2371C101.43 9.2618 99.1761 7.17929 95.0581 7.17929C92.2754 7.17929 89.8919 8.1695 88.2217 9.99371V7.52508H84.1699V33.0044H88.2217V16.685Z" fill="white"/>
<path d="M21.4498 17.5472C22.4229 13.5993 25.8345 10.8853 29.9128 10.8853C33.9512 10.8853 37.0535 13.542 37.7664 17.5472H21.4498ZM41.8873 19.8913C41.8631 16.0379 40.6542 12.7764 38.3916 10.4599C36.2631 8.28056 33.287 7.08036 30.0113 7.08036C22.5868 7.08036 17.198 12.6147 17.198 20.2398C17.198 27.9587 22.4264 33.3499 29.9128 33.3499C34.874 33.3499 38.7391 31.2116 41.0897 27.1659L41.292 26.8178L37.8191 24.5852L37.5971 24.964C35.7653 28.0892 33.3235 29.5447 29.9128 29.5447C25.1628 29.5447 21.5124 25.9886 21.2629 21.2039H41.8873V19.8913Z" fill="white"/>
<path d="M4.0518 11.33H15.6541V7.52485H0V33.0535H4.0518V11.33Z" fill="white"/>
<path d="M127.972 17.5472C128.945 13.5993 132.356 10.8853 136.435 10.8853C140.473 10.8853 143.575 13.542 144.288 17.5472H127.972ZM136.435 33.3499C141.396 33.3499 145.261 31.2116 147.611 27.1659L147.814 26.8178L144.341 24.5852L144.119 24.964C142.287 28.0892 139.845 29.5447 136.435 29.5447C131.684 29.5447 128.034 25.9886 127.785 21.2039H148.409V19.8913C148.384 16.0379 147.176 12.7764 144.913 10.4599C142.785 8.28056 139.809 7.08036 136.533 7.08036C129.109 7.08036 123.72 12.6147 123.72 20.2398C123.72 27.9587 128.948 33.3499 136.435 33.3499Z" fill="white"/>
<path d="M78.9131 7.24792e-05H74.8613V33.0042H78.9131V7.24792e-05Z" fill="white"/>
<path d="M48.8685 20.3384C48.8685 15.1463 52.5927 11.231 57.5315 11.231C62.6542 11.231 66.0961 14.891 66.0961 20.3384C66.0961 25.7564 62.6542 29.3967 57.5315 29.3967C52.5927 29.3967 48.8685 25.5024 48.8685 20.3384ZM57.729 33.4485C60.6877 33.4485 63.5031 32.4643 65.6024 30.7217V33.0534H69.6047V7.57425H65.6024V9.91771C63.4658 8.16787 60.649 7.17916 57.729 7.17916C54.1068 7.17916 50.808 8.52677 48.4405 10.9735C46.1037 13.3887 44.8167 16.7145 44.8167 20.3384C44.8167 23.9594 46.1038 27.277 48.4415 29.6797C50.8057 32.11 54.104 33.4485 57.729 33.4485Z" fill="white"/>
</svg>
