<svg width="182" height="12" viewBox="0 0 182 12" fill="none" xmlns="http://www.w3.org/2000/svg">
<g clip-path="url(#clip0_51_120)">
<path d="M84.6194 6.38905V11.7034H92.2924H99.9654V6.38905V1.07474H92.2924H84.6194V6.38905ZM88.7211 2.50606C89.6401 2.71332 90.4225 3.31915 90.9405 4.2279C91.7637 5.66808 91.6715 7.57592 90.7152 8.91158C90.2788 9.51919 89.6933 9.96736 89.0617 10.1764C88.6679 10.3075 88.5065 10.3216 87.3834 10.3216H86.429V6.38728V2.45469L87.4899 2.46177C88.4994 2.46709 88.5579 2.47063 88.7211 2.50606ZM98.1558 6.39082V10.3234L97.1055 10.3181C96.0961 10.311 96.0464 10.3092 95.8619 10.272C94.4284 9.97267 93.3356 8.65827 93.1067 6.95591C93.0428 6.48648 93.073 5.86648 93.1812 5.38819C93.5112 3.92144 94.6112 2.74343 95.8637 2.51137C96.1333 2.46 96.0819 2.46177 97.1676 2.46L98.1558 2.45646V6.39082Z" fill="#B4B4B4"/>
<path d="M114.868 2.10405C113.885 2.16251 113.124 2.38748 112.593 2.7772C112.427 2.9012 112.178 3.17045 112.068 3.34583C111.887 3.63634 111.763 4.0172 111.697 4.46715C111.669 4.67795 111.666 4.83915 111.666 6.45116C111.666 8.18894 111.666 8.20666 111.706 8.45643C111.779 8.92055 111.926 9.32975 112.12 9.61495C112.347 9.9533 112.76 10.2562 113.236 10.4334C113.794 10.6406 114.476 10.731 115.498 10.731C116.237 10.731 116.663 10.6973 117.183 10.5946C118.491 10.3359 119.158 9.61495 119.312 8.28814C119.333 8.10391 119.339 7.76557 119.339 6.43699C119.339 4.73818 119.335 4.63544 119.259 4.2528C119.149 3.71074 118.934 3.28737 118.595 2.95257C118.317 2.67622 118.024 2.50617 117.582 2.36091C116.903 2.13771 115.899 2.04205 114.868 2.10405ZM115.93 3.41314C116.369 3.44326 116.589 3.49109 116.828 3.61154C117.151 3.77452 117.33 4.05795 117.417 4.53978C117.446 4.69921 117.449 4.86218 117.449 6.37145C117.449 7.65397 117.444 8.0614 117.426 8.17831C117.309 8.93649 117.016 9.24118 116.278 9.37581C116.017 9.42363 115.019 9.42363 114.737 9.37758C114.048 9.26066 113.741 8.97723 113.603 8.33066C113.564 8.15351 113.564 8.12871 113.564 6.38916V4.62658L113.605 4.44058C113.777 3.66292 114.222 3.41137 115.462 3.39897C115.579 3.3972 115.79 3.40428 115.93 3.41314Z" fill="#B4B4B4"/>
<path d="M174.363 2.10211C173.621 2.16943 173.009 2.37137 172.576 2.69554C172.383 2.8408 172.115 3.12069 171.989 3.30846C171.661 3.80269 171.467 4.41384 171.361 5.29956C171.315 5.6875 171.315 7.07277 171.361 7.46071C171.467 8.34998 171.661 8.96112 171.991 9.45358C172.118 9.64313 172.384 9.91947 172.58 10.0665C172.965 10.3552 173.566 10.5696 174.194 10.6404C174.671 10.6936 175.298 10.6794 175.748 10.605C177.267 10.3552 178.069 9.45358 178.31 7.71757C178.37 7.29066 178.388 6.97534 178.388 6.38014C178.388 5.62019 178.344 5.10824 178.232 4.59984C177.902 3.09057 177.093 2.33594 175.578 2.12868C175.335 2.09503 174.614 2.08085 174.363 2.10211ZM175.415 3.0516C176.357 3.18977 176.878 3.73361 177.093 4.79824C177.16 5.1295 177.19 5.41293 177.214 5.92133C177.245 6.66711 177.201 7.42883 177.095 7.96203C176.889 8.97352 176.413 9.50495 175.549 9.68564C175.175 9.76358 174.586 9.76536 174.194 9.69096C173.19 9.50141 172.695 8.84244 172.533 7.47843C172.494 7.14894 172.478 5.98688 172.507 5.60602C172.56 4.91161 172.656 4.47407 172.837 4.08967C173.16 3.40943 173.685 3.08703 174.593 3.01617C174.755 3.00377 175.23 3.02326 175.415 3.0516Z" fill="#B4B4B4"/>
<path d="M103.008 2.24746C103.003 2.25986 103.001 4.12695 103.003 6.39794L103.008 10.5254H105.447C108.085 10.5254 108.085 10.5254 108.548 10.428C109.65 10.1959 110.216 9.54047 110.404 8.27389C110.463 7.88949 110.472 7.58126 110.465 6.18537C110.457 4.65484 110.452 4.59638 110.335 4.12872C110.205 3.60969 110.01 3.25186 109.696 2.95426C109.302 2.58049 108.772 2.37146 107.956 2.26871C107.757 2.24214 107.424 2.2386 105.371 2.23151C103.439 2.22443 103.015 2.22797 103.008 2.24746ZM107.557 3.49986C108.163 3.65575 108.511 4.11632 108.588 4.8621C108.602 4.98964 108.605 5.50159 108.6 6.44222C108.595 7.6592 108.589 7.85229 108.563 7.98338C108.517 8.21366 108.47 8.35715 108.383 8.52721C108.247 8.79647 108.071 8.97538 107.816 9.09938C107.539 9.23401 107.594 9.23047 106.171 9.23578L104.897 9.24287V6.34479V3.44495L106.153 3.45381C107.374 3.46089 107.411 3.46089 107.557 3.49986Z" fill="#B4B4B4"/>
<path d="M120.714 2.24739C120.708 2.25979 120.706 4.12688 120.708 6.39787L120.714 10.5253L123.38 10.5306L126.045 10.5342V9.83446V9.13474H124.315H122.585V5.68044V2.22613H121.654C120.925 2.22613 120.719 2.23144 120.714 2.24739Z" fill="#B4B4B4"/>
<path d="M127.074 6.38186V10.5359L129.297 10.5288C131.181 10.5217 131.553 10.5164 131.75 10.4934C132.495 10.403 132.884 10.2436 133.248 9.88046C133.562 9.56691 133.762 9.17011 133.844 8.70245C133.879 8.49873 133.869 7.9301 133.824 7.69273C133.767 7.38627 133.656 7.09221 133.516 6.88672C133.21 6.44032 132.673 6.17992 131.979 6.14626L131.766 6.13563L132.006 6.08781C132.547 5.97975 132.845 5.82209 133.093 5.51563C133.237 5.33672 133.336 5.09757 133.391 4.79465C133.43 4.58385 133.425 3.92311 133.382 3.73179C133.301 3.36156 133.164 3.09762 132.93 2.86379C132.621 2.55556 132.249 2.3731 131.757 2.28984C131.433 2.23493 131.071 2.22607 129.075 2.22607H127.074V6.38186ZM131.016 3.45013C131.285 3.50682 131.536 3.70876 131.665 3.97979C131.759 4.17465 131.793 4.34648 131.793 4.62637C131.793 5.443 131.493 5.64849 130.246 5.691C130.077 5.69632 129.921 5.7034 129.9 5.70872L129.859 5.7158V6.19232V6.66707L130.406 6.67769C131.129 6.69187 131.33 6.72021 131.612 6.8513C131.867 6.96821 132.043 7.17901 132.121 7.46067C132.165 7.62364 132.178 8.04525 132.141 8.21885C132.084 8.49342 131.974 8.70245 131.784 8.89554C131.635 9.04788 131.468 9.14885 131.252 9.22148C131 9.30474 130.892 9.31182 129.884 9.31182H128.954V6.37124V3.43065H129.939C130.588 3.43065 130.954 3.43773 131.016 3.45013Z" fill="#B4B4B4"/>
<path d="M134.046 2.24207C134.046 2.25093 134.216 2.5751 134.426 2.96305C134.633 3.35277 135.259 4.51837 135.813 5.55644L136.822 7.44302L136.831 8.98417L136.84 10.5253L137.848 10.5306L138.854 10.5342V9.02137V7.50856L139.787 5.81861C140.3 4.89037 140.951 3.71591 141.233 3.20928C141.513 2.70088 141.749 2.27219 141.756 2.25624C141.767 2.2279 141.712 2.22613 140.874 2.22967L139.982 2.23499L138.953 4.10031C138.036 5.76015 137.921 5.9621 137.899 5.93375C137.885 5.91604 137.434 5.07638 136.897 4.06843L135.918 2.23499L134.983 2.22967C134.436 2.2279 134.046 2.23322 134.046 2.24207Z" fill="#B4B4B4"/>
<path d="M147.409 2.3271C147.389 2.38379 146.729 4.23849 145.941 6.45101C145.154 8.66354 144.504 10.4864 144.501 10.5041C144.492 10.5324 144.527 10.5342 145.069 10.5342H145.645L145.824 10.0063C145.924 9.71755 146.082 9.2552 146.176 8.97886L146.346 8.47931H148.145C149.133 8.47931 149.942 8.48285 149.942 8.48462C149.942 8.49171 150.588 10.3535 150.627 10.458L150.655 10.5342H151.23C151.546 10.5342 151.805 10.5306 151.805 10.5271C151.805 10.52 148.915 2.43339 148.865 2.30053L148.837 2.22613H148.141H147.444L147.409 2.3271ZM148.335 3.77083C148.429 4.0702 148.757 5.05158 149.064 5.9497C149.371 6.84959 149.623 7.59005 149.623 7.59713C149.623 7.60599 148.956 7.61131 148.141 7.61131C147.327 7.61131 146.66 7.60776 146.66 7.60245C146.66 7.59713 146.841 7.06393 147.061 6.41913C147.621 4.78232 147.792 4.27391 147.966 3.723C148.148 3.14196 148.131 3.19156 148.148 3.21105C148.157 3.21991 148.241 3.47145 148.335 3.77083Z" fill="#B4B4B4"/>
<path d="M152.591 5.24106C152.598 8.47394 152.594 8.31628 152.683 8.71308C152.837 9.39686 153.203 9.91943 153.767 10.256C154.262 10.5518 155.028 10.6989 155.939 10.6688C156.638 10.6475 157.118 10.5518 157.546 10.3499C157.787 10.2365 157.966 10.1072 158.176 9.89817C158.509 9.56692 158.69 9.22857 158.813 8.70954C158.901 8.33222 158.901 8.30919 158.901 5.16135V2.22607L158.348 2.22962L157.793 2.23493L157.784 5.29952C157.773 8.64931 157.78 8.42079 157.674 8.73611C157.539 9.14354 157.218 9.48189 156.813 9.64663C156.29 9.86097 155.227 9.86452 154.702 9.65549C154.269 9.48189 153.959 9.1524 153.811 8.70777C153.71 8.39954 153.716 8.57668 153.709 5.26763L153.701 2.22607H153.143H152.584L152.591 5.24106Z" fill="#B4B4B4"/>
<path d="M160.702 2.2474C160.697 2.2598 160.695 4.1269 160.697 6.39788L160.702 10.5253L162.148 10.5306C164.009 10.5377 164.362 10.52 164.853 10.3925C165.341 10.2667 165.725 10.047 166.078 9.69099C166.752 9.01076 167.098 7.88943 167.098 6.38017C167.098 5.33325 166.927 4.45639 166.599 3.8045C166.448 3.50867 166.287 3.27838 166.078 3.06758C165.556 2.54146 164.955 2.30054 164.011 2.24386C163.558 2.21729 160.713 2.22083 160.702 2.2474ZM164.241 3.15438C164.626 3.23055 164.933 3.38112 165.166 3.60964C165.556 3.99227 165.783 4.58747 165.886 5.48736C165.929 5.87354 165.929 6.8868 165.886 7.27474C165.801 8.02938 165.622 8.57498 165.332 8.96115C165.073 9.30481 164.729 9.50853 164.24 9.60596C164.112 9.63253 163.927 9.63784 162.96 9.64316L161.829 9.65024V6.38017V3.11009L162.96 3.11718C163.931 3.12249 164.112 3.12781 164.241 3.15438Z" fill="#B4B4B4"/>
<path d="M168.65 2.24739C168.645 2.25979 168.643 4.12688 168.645 6.39787L168.65 10.5253L169.205 10.5306L169.759 10.5342V6.38015V2.22613H169.209C168.785 2.22613 168.655 2.23144 168.65 2.24739Z" fill="#B4B4B4"/>
<path d="M179.303 2.3413V2.43873H179.516H179.729V3.04102V3.64331H179.836H179.942V3.04102V2.4405L180.16 2.43519L180.377 2.42987L180.382 2.33599L180.387 2.24387H179.846H179.303V2.3413Z" fill="#B4B4B4"/>
<path d="M180.563 2.94359V3.64331H180.669H180.776L180.779 3.07291L180.785 2.50428L180.872 2.70622C180.921 2.81782 181.007 3.00559 181.062 3.12428L181.164 3.34217H181.271H181.379L181.461 3.16856C181.505 3.07468 181.59 2.88513 181.649 2.74873C181.707 2.61233 181.759 2.49719 181.762 2.49365C181.766 2.4901 181.764 2.74696 181.757 3.06405L181.746 3.64331H181.872H182V2.94359V2.24387H181.835H181.668L181.477 2.66016C181.37 2.88868 181.28 3.07645 181.274 3.07645C181.269 3.07645 181.179 2.89045 181.076 2.6637L180.888 2.25273L180.724 2.24742L180.563 2.2421V2.94359Z" fill="#B4B4B4"/>
</g>
<g clip-path="url(#clip1_51_120)">
<path d="M3.80706 3.98975C4.93696 3.98975 5.87893 4.53937 6.3176 5.13335V4.13812H8.04337V11.5632H6.87132C6.56554 11.5632 6.3176 11.3289 6.3176 11.0392V10.5689C5.87893 11.1624 4.93696 11.7116 3.80706 11.7116C1.6582 11.7116 0.0258789 9.97456 0.0258789 7.8509C0.0258789 5.72724 1.6582 3.98975 3.80706 3.98975ZM4.12102 5.47501C2.72436 5.47501 1.78283 6.51425 1.78283 7.8509C1.78283 9.18713 2.72436 10.227 4.12102 10.227C5.51724 10.227 6.45921 9.18713 6.45921 7.8509C6.45921 6.51425 5.51733 5.47501 4.12102 5.47501Z" fill="#B4B4B4"/>
<path d="M10.0034 4.13836H11.7296V5.1481C12.1999 4.40584 13.0947 3.98999 14.1146 3.98999C15.9343 3.98999 17.1114 5.20769 17.1114 7.0938V11.5632H15.9389C15.6333 11.5632 15.3852 11.3285 15.3852 11.0392V7.36111C15.3852 6.18809 14.7573 5.47525 13.7539 5.47525C12.6084 5.47525 11.7297 6.3217 11.7297 7.91033V11.5632H10.5567C10.2515 11.5632 10.0034 11.3285 10.0034 11.0392V4.13836V4.13836Z" fill="#B4B4B4"/>
<path d="M22.2581 3.98978C23.3876 3.98978 24.3295 4.53941 24.7686 5.13338V0.426025H26.494V11.5632H25.3219C25.0167 11.5632 24.7686 11.329 24.7686 11.0392V10.569C24.3295 11.1625 23.3876 11.7117 22.2581 11.7117C20.1083 11.7117 18.4766 9.9746 18.4766 7.85093C18.4766 5.72727 20.1084 3.98978 22.2581 3.98978ZM22.5721 5.47504C21.1759 5.47504 20.2344 6.51429 20.2344 7.85093C20.2344 9.18716 21.1759 10.2271 22.5721 10.2271C23.9678 10.2271 24.9094 9.18716 24.9094 7.85093C24.9094 6.51429 23.9678 5.47504 22.5721 5.47504Z" fill="#B4B4B4"/>
<path d="M28.4543 4.13839H30.1801V5.46004C30.4781 4.61359 31.3568 4.06421 32.2515 4.06421C32.4706 4.06421 32.691 4.07921 32.9262 4.12364V5.80153C32.6273 5.71235 32.3771 5.66792 32.0636 5.66792C31.0749 5.66792 30.1802 6.45535 30.1802 7.94028V11.5632H29.0077C28.7025 11.5632 28.4544 11.3285 28.4544 11.0392V4.13839H28.4543Z" fill="#B4B4B4"/>
<path d="M37.5796 11.7116C35.258 11.7116 33.469 10.0036 33.469 7.85131C33.469 5.69797 35.258 3.98975 37.5796 3.98975C39.9022 3.98975 41.6904 5.69756 41.6904 7.85131C41.6904 10.0036 39.9022 11.7116 37.5796 11.7116ZM37.5796 10.1975C38.9604 10.1975 39.9334 9.17238 39.9334 7.85131C39.9334 6.52992 38.9603 5.50476 37.5796 5.50476C36.1835 5.50476 35.2108 6.52992 35.2108 7.85131C35.2108 9.17238 36.1835 10.1975 37.5796 10.1975Z" fill="#B4B4B4"/>
<path d="M43.9521 2.51992C43.3246 2.51992 42.791 2.03039 42.791 1.42084C42.791 0.826863 43.3246 0.336914 43.9521 0.336914C44.5952 0.336914 45.0975 0.826946 45.0975 1.42084C45.0975 2.03039 44.5952 2.51992 43.9521 2.51992ZM43.0898 4.13814H44.8152V11.5632H43.6431C43.3373 11.5632 43.0898 11.328 43.0898 11.0392V4.13814Z" fill="#B4B4B4"/>
<path d="M50.0143 3.98978C51.1442 3.98978 52.0857 4.53941 52.5253 5.13338V0.426025H54.251V11.5632H53.079C52.7727 11.5632 52.5253 11.329 52.5253 11.0392V10.569C52.0857 11.1625 51.1442 11.7117 50.0143 11.7117C47.8654 11.7117 46.2336 9.9746 46.2336 7.85093C46.2336 5.72727 47.8654 3.98978 50.0143 3.98978ZM50.3283 5.47504C48.9326 5.47504 47.9911 6.51429 47.9911 7.85093C47.9911 9.18716 48.9326 10.2271 50.3283 10.2271C51.725 10.2271 52.6665 9.18716 52.6665 7.85093C52.6664 6.51429 51.725 5.47504 50.3283 5.47504Z" fill="#B4B4B4"/>
<path d="M57.2517 5.08284H55.563V4.09759H57.2517V2.02148H58.3559V4.09759H60.6597V5.08284H58.3559V9.39883C58.3559 10.3095 58.7823 10.6678 59.6654 10.6678C59.9808 10.6678 60.4072 10.608 60.6597 10.5039V11.4444C60.2961 11.579 59.918 11.6387 59.4918 11.6387C58.151 11.6387 57.2517 10.9064 57.2517 9.48777V5.08284V5.08284Z" fill="#B4B4B4"/>
<path d="M69.6374 4.09741L65.9458 11.5642H65.078L61.3857 4.09741H62.6165L65.5039 10.0258L68.3912 4.09741H69.6374Z" fill="#B4B4B4"/>
</g>
<rect x="76.7256" y="1.573" width="1" height="10" fill="#B4B4B4"/>
<defs>
<clipPath id="clip0_51_120">
<rect width="97.3984" height="10.6641" fill="white" transform="translate(84.6016 1.05713)"/>
</clipPath>
<clipPath id="clip1_51_120">
<rect width="69.6719" height="11.375" fill="white" transform="translate(0 0.346191)"/>
</clipPath>
</defs>
</svg>
