<svg width="406" height="35" viewBox="0 0 406 35" fill="none" xmlns="http://www.w3.org/2000/svg">
<path fill-rule="evenodd" clip-rule="evenodd" d="M175.789 18.269C172.336 17.3939 169.353 16.638 169.353 14.1286C169.353 11.6681 172.101 10.548 174.655 10.548C176.063 10.548 179.477 10.8667 180.794 13.8225L180.944 14.1572L184.516 12.2359L184.363 11.9357C182.697 8.6452 179.068 6.68042 174.655 6.68042C169.222 6.68042 165.124 9.88269 165.124 14.1286C165.124 19.4174 170.043 20.6642 174.382 21.7632C177.835 22.6383 180.817 23.3942 180.817 25.9035C180.817 29.1814 176.733 29.5345 174.977 29.5345C171.563 29.5345 168.863 28.0201 167.934 25.5813L167.796 25.2173L164.17 27.1905L164.293 27.479C165.836 31.1319 169.93 33.4021 174.977 33.4021C180.905 33.4021 185.046 30.318 185.046 25.9035C185.046 20.6156 180.127 19.3688 175.789 18.269Z" fill="black"/>
<path fill-rule="evenodd" clip-rule="evenodd" d="M216.037 6.68042C212.615 6.68042 209.635 8.23444 207.769 10.965C206.197 8.19673 203.444 6.68042 199.954 6.68042C196.845 6.68042 194.33 7.88433 192.464 10.2623V7.29061H188.387V33.4021H192.464V18.9737C192.464 12.8262 196.095 10.6363 199.492 10.6363C203.081 10.6363 205.138 13.027 205.138 17.1957V33.4021H209.214V18.9737C209.214 13.5967 211.619 10.6363 215.986 10.6363C219.682 10.6363 221.888 13.088 221.888 17.1957V33.4021H225.964V17.1957C225.964 10.8079 222.067 6.68042 216.037 6.68042Z" fill="black"/>
<path fill-rule="evenodd" clip-rule="evenodd" d="M241.831 29.5345C236.218 29.5345 231.822 25.365 231.822 20.0408C231.822 14.7176 236.218 10.5481 241.831 10.5481C247.444 10.5481 251.839 14.7176 251.839 20.0408C251.839 25.365 247.444 29.5345 241.831 29.5345ZM251.839 11.4037C249.425 8.38843 245.742 6.68042 241.568 6.68042C233.885 6.68042 227.634 12.6739 227.634 20.0407C227.634 27.4078 233.885 33.4021 241.568 33.4021C245.74 33.4021 249.423 31.6939 251.839 28.6788V32.8055H256.026V7.27683H251.839V11.4037Z" fill="black"/>
<path fill-rule="evenodd" clip-rule="evenodd" d="M263.562 10.4003V7.09022H259.366V33.4021H263.562V18.8121C263.562 11.4604 269.137 10.6667 271.534 10.6667H271.892V6.68042H271.534C267.907 6.68042 265.285 7.90042 263.562 10.4003Z" fill="black"/>
<path fill-rule="evenodd" clip-rule="evenodd" d="M283.413 0.834961L279.165 2.02111V7.8424H273.562V11.6745H279.165V26.2491C279.165 28.7918 279.875 30.6064 281.337 31.796C282.655 32.8691 284.592 33.402 287.21 33.402C288.287 33.402 289.478 33.3121 290.787 33.1326L291.098 33.0903V29.5865L289.901 29.6331C287.05 29.7478 285.18 29.8251 284.233 28.9722C283.673 28.4677 283.413 27.6022 283.413 26.2491V11.6745H291.098V7.8424H283.413V0.834961Z" fill="black"/>
<path fill-rule="evenodd" clip-rule="evenodd" d="M305.294 10.7117H312.493V33.4021H316.432V10.7117H323.665V6.68042H305.294V10.7117Z" fill="black"/>
<path fill-rule="evenodd" clip-rule="evenodd" d="M336.605 27.5417L329.667 6.68042H325.335L334.466 33.4021H338.711L347.881 6.68042H343.511L336.605 27.5417Z" fill="black"/>
<path fill-rule="evenodd" clip-rule="evenodd" d="M378.899 16.8489H374.76V23.9884H365.871L375.376 6.68042H370.875L361.283 24.1511L361.242 24.2251V27.771H374.76V32.567H378.899V27.771H382.118V23.9884H378.899V16.8489Z" fill="black"/>
<path fill-rule="evenodd" clip-rule="evenodd" d="M392.781 19.2657L405.125 6.68042H399.791L388.879 17.6239V6.68042H384.624V32.567H388.879V20.9177L400.18 32.567H405.5L392.781 19.2657Z" fill="black"/>
<path fill-rule="evenodd" clip-rule="evenodd" d="M89.7998 16.5161C89.7998 12.9878 93.0085 10.6176 96.0051 10.6176C99.6465 10.6176 101.909 13.2304 101.909 17.4359V33.4021H106.033V16.9247C106.033 13.8757 107.69 10.6176 112.339 10.6176C115.956 10.6176 118.293 13.2941 118.293 17.4359V33.4021H122.418V17.4359C122.418 10.8016 118.748 6.68042 112.842 6.68042C109.364 6.68042 106.355 8.20106 104.477 10.8792C103.245 8.83523 100.951 6.68042 96.7589 6.68042C93.9263 6.68042 91.5 7.705 89.7998 9.59254V7.03821H85.6753V33.4021H89.7998V16.5161Z" fill="black"/>
<path fill-rule="evenodd" clip-rule="evenodd" d="M21.5154 17.3275C22.5028 13.3116 25.9644 10.5509 30.1026 10.5509C34.2002 10.5509 37.3479 13.2534 38.0714 17.3275H21.5154ZM42.2525 19.7119C42.2279 15.7921 41.0013 12.4745 38.7055 10.1181C36.5458 7.90128 33.526 6.68042 30.2022 6.68042C22.6688 6.68042 17.2009 12.3101 17.2009 20.0663C17.2009 27.9182 22.5061 33.4021 30.1023 33.4021C35.1363 33.4021 39.058 31.227 41.4431 27.1117L41.6485 26.7576L38.1245 24.4866L37.8993 24.8719C36.0406 28.0509 33.5631 29.5315 30.1023 29.5315C25.2826 29.5315 21.5786 25.9141 21.3255 21.0471H42.2525V19.7119Z" fill="black"/>
<mask id="mask0_51_393" style="mask-type:alpha" maskUnits="userSpaceOnUse" x="0" y="6" width="18" height="27">
<path fill-rule="evenodd" clip-rule="evenodd" d="M0.5 6.68042H17.201V32.567H0.5V6.68042Z" fill="white"/>
</mask>
<g mask="url(#mask0_51_393)">
<path fill-rule="evenodd" clip-rule="evenodd" d="M4.82279 10.5389H17.2011V6.68042H0.5V32.567H4.82279V10.5389Z" fill="black"/>
</g>
<path fill-rule="evenodd" clip-rule="evenodd" d="M130.072 17.3275C131.06 13.3116 134.521 10.5509 138.659 10.5509C142.757 10.5509 145.905 13.2534 146.628 17.3275H130.072ZM138.659 33.4021C143.693 33.4021 147.615 31.227 150 27.1117L150.206 26.7576L146.682 24.4866L146.457 24.8719C144.598 28.0509 142.12 29.5315 138.659 29.5315C133.839 29.5315 130.135 25.9141 129.882 21.0471H150.809V19.7119C150.785 15.7921 149.558 12.4745 147.262 10.1181C145.103 7.90128 142.083 6.68042 138.759 6.68042C131.226 6.68042 125.758 12.3101 125.758 20.0663C125.758 27.9182 131.063 33.4021 138.659 33.4021Z" fill="black"/>
<mask id="mask1_51_393" style="mask-type:alpha" maskUnits="userSpaceOnUse" x="0" y="0" width="406" height="35">
<path fill-rule="evenodd" clip-rule="evenodd" d="M0.5 34.2371H405.5V0H0.5V34.2371Z" fill="white"/>
</mask>
<g mask="url(#mask1_51_393)">
<path fill-rule="evenodd" clip-rule="evenodd" d="M75.6545 32.567H80.6649V0H75.6545V32.567Z" fill="black"/>
<path fill-rule="evenodd" clip-rule="evenodd" d="M49.6877 20.0663C49.6877 14.7848 53.4516 10.802 58.4429 10.802C63.62 10.802 67.0985 14.5251 67.0985 20.0663C67.0985 25.5776 63.62 29.2805 58.4429 29.2805C53.4516 29.2805 49.6877 25.3192 49.6877 20.0663ZM58.6424 33.4021C61.6325 33.4021 64.4779 32.4009 66.5994 30.6284V33.0002H70.6443V7.08231H66.5994V9.46613C64.4401 7.68616 61.5934 6.68042 58.6424 6.68042C54.9817 6.68042 51.6478 8.05124 49.2551 10.5401C46.8935 12.9969 45.5928 16.38 45.5928 20.0662C45.5928 23.7496 46.8936 27.1243 49.2561 29.5684C51.6455 32.0405 54.9789 33.4021 58.6424 33.4021Z" fill="black"/>
</g>
</svg>
