<svg width="405" height="35" viewBox="0 0 405 35" fill="none" xmlns="http://www.w3.org/2000/svg">
<path fill-rule="evenodd" clip-rule="evenodd" d="M175.289 18.269C171.836 17.3939 168.853 16.638 168.853 14.1286C168.853 11.6681 171.601 10.548 174.155 10.548C175.563 10.548 178.977 10.8667 180.294 13.8225L180.444 14.1572L184.016 12.2359L183.863 11.9357C182.197 8.6452 178.568 6.68042 174.155 6.68042C168.722 6.68042 164.624 9.88269 164.624 14.1286C164.624 19.4174 169.543 20.6642 173.882 21.7632C177.335 22.6383 180.317 23.3942 180.317 25.9035C180.317 29.1814 176.233 29.5345 174.477 29.5345C171.063 29.5345 168.363 28.0201 167.434 25.5813L167.296 25.2173L163.67 27.1905L163.793 27.479C165.336 31.1319 169.43 33.4021 174.477 33.4021C180.405 33.4021 184.546 30.318 184.546 25.9035C184.546 20.6156 179.627 19.3688 175.289 18.269Z" fill="white"/>
<path fill-rule="evenodd" clip-rule="evenodd" d="M215.537 6.68042C212.115 6.68042 209.135 8.23444 207.269 10.965C205.697 8.19673 202.944 6.68042 199.454 6.68042C196.345 6.68042 193.83 7.88433 191.964 10.2623V7.29061H187.887V33.4021H191.964V18.9737C191.964 12.8262 195.595 10.6363 198.992 10.6363C202.581 10.6363 204.638 13.027 204.638 17.1957V33.4021H208.714V18.9737C208.714 13.5967 211.119 10.6363 215.486 10.6363C219.182 10.6363 221.388 13.088 221.388 17.1957V33.4021H225.464V17.1957C225.464 10.8079 221.567 6.68042 215.537 6.68042Z" fill="white"/>
<path fill-rule="evenodd" clip-rule="evenodd" d="M241.331 29.5345C235.718 29.5345 231.322 25.365 231.322 20.0408C231.322 14.7176 235.718 10.5481 241.331 10.5481C246.944 10.5481 251.339 14.7176 251.339 20.0408C251.339 25.365 246.944 29.5345 241.331 29.5345ZM251.339 11.4037C248.925 8.38843 245.242 6.68042 241.068 6.68042C233.385 6.68042 227.134 12.6739 227.134 20.0407C227.134 27.4078 233.385 33.4021 241.068 33.4021C245.24 33.4021 248.923 31.6939 251.339 28.6788V32.8055H255.526V7.27683H251.339V11.4037Z" fill="white"/>
<path fill-rule="evenodd" clip-rule="evenodd" d="M263.062 10.4003V7.09022H258.866V33.4021H263.062V18.8121C263.062 11.4604 268.637 10.6667 271.034 10.6667H271.392V6.68042H271.034C267.407 6.68042 264.785 7.90042 263.062 10.4003Z" fill="white"/>
<path fill-rule="evenodd" clip-rule="evenodd" d="M282.913 0.834961L278.665 2.02111V7.8424H273.062V11.6745H278.665V26.2491C278.665 28.7918 279.375 30.6064 280.837 31.796C282.155 32.8691 284.092 33.402 286.71 33.402C287.787 33.402 288.978 33.3121 290.287 33.1326L290.598 33.0903V29.5865L289.401 29.6331C286.55 29.7478 284.68 29.8251 283.733 28.9722C283.173 28.4677 282.913 27.6022 282.913 26.2491V11.6745H290.598V7.8424H282.913V0.834961Z" fill="white"/>
<path fill-rule="evenodd" clip-rule="evenodd" d="M304.794 10.7117H311.993V33.4021H315.932V10.7117H323.165V6.68042H304.794V10.7117Z" fill="white"/>
<path fill-rule="evenodd" clip-rule="evenodd" d="M336.105 27.5417L329.167 6.68042H324.835L333.966 33.4021H338.211L347.381 6.68042H343.011L336.105 27.5417Z" fill="white"/>
<path fill-rule="evenodd" clip-rule="evenodd" d="M378.399 16.8489H374.26V23.9884H365.371L374.876 6.68042H370.375L360.783 24.1511L360.742 24.2251V27.771H374.26V32.567H378.399V27.771H381.618V23.9884H378.399V16.8489Z" fill="white"/>
<path fill-rule="evenodd" clip-rule="evenodd" d="M392.281 19.2657L404.625 6.68042H399.291L388.379 17.6239V6.68042H384.124V32.567H388.379V20.9177L399.68 32.567H405L392.281 19.2657Z" fill="white"/>
<path fill-rule="evenodd" clip-rule="evenodd" d="M89.2998 16.5161C89.2998 12.9878 92.5085 10.6176 95.5051 10.6176C99.1465 10.6176 101.409 13.2304 101.409 17.4359V33.4021H105.533V16.9247C105.533 13.8757 107.19 10.6176 111.839 10.6176C115.456 10.6176 117.793 13.2941 117.793 17.4359V33.4021H121.918V17.4359C121.918 10.8016 118.248 6.68042 112.342 6.68042C108.864 6.68042 105.855 8.20106 103.977 10.8792C102.745 8.83523 100.451 6.68042 96.2589 6.68042C93.4263 6.68042 91 7.705 89.2998 9.59254V7.03821H85.1753V33.4021H89.2998V16.5161Z" fill="white"/>
<path fill-rule="evenodd" clip-rule="evenodd" d="M21.0154 17.3275C22.0028 13.3116 25.4644 10.5509 29.6026 10.5509C33.7002 10.5509 36.8479 13.2534 37.5714 17.3275H21.0154ZM41.7525 19.7119C41.7279 15.7921 40.5013 12.4745 38.2055 10.1181C36.0458 7.90128 33.026 6.68042 29.7022 6.68042C22.1688 6.68042 16.7009 12.3101 16.7009 20.0663C16.7009 27.9182 22.0061 33.4021 29.6023 33.4021C34.6363 33.4021 38.558 31.227 40.9431 27.1117L41.1485 26.7576L37.6245 24.4866L37.3993 24.8719C35.5406 28.0509 33.0631 29.5315 29.6023 29.5315C24.7826 29.5315 21.0786 25.9141 20.8255 21.0471H41.7525V19.7119Z" fill="white"/>
<mask id="mask0_51_40" style="mask-type:alpha" maskUnits="userSpaceOnUse" x="0" y="6" width="17" height="27">
<path fill-rule="evenodd" clip-rule="evenodd" d="M0 6.68042H16.701V32.567H0V6.68042Z" fill="white"/>
</mask>
<g mask="url(#mask0_51_40)">
<path fill-rule="evenodd" clip-rule="evenodd" d="M4.32279 10.5389H16.7011V6.68042H0V32.567H4.32279V10.5389Z" fill="white"/>
</g>
<path fill-rule="evenodd" clip-rule="evenodd" d="M129.572 17.3275C130.56 13.3116 134.021 10.5509 138.159 10.5509C142.257 10.5509 145.405 13.2534 146.128 17.3275H129.572ZM138.159 33.4021C143.193 33.4021 147.115 31.227 149.5 27.1117L149.706 26.7576L146.182 24.4866L145.957 24.8719C144.098 28.0509 141.62 29.5315 138.159 29.5315C133.339 29.5315 129.635 25.9141 129.382 21.0471H150.309V19.7119C150.285 15.7921 149.058 12.4745 146.762 10.1181C144.603 7.90128 141.583 6.68042 138.259 6.68042C130.726 6.68042 125.258 12.3101 125.258 20.0663C125.258 27.9182 130.563 33.4021 138.159 33.4021Z" fill="white"/>
<mask id="mask1_51_40" style="mask-type:alpha" maskUnits="userSpaceOnUse" x="0" y="0" width="405" height="35">
<path fill-rule="evenodd" clip-rule="evenodd" d="M0 34.2371H405V0H0V34.2371Z" fill="white"/>
</mask>
<g mask="url(#mask1_51_40)">
<path fill-rule="evenodd" clip-rule="evenodd" d="M75.1545 32.567H80.1649V0H75.1545V32.567Z" fill="white"/>
<path fill-rule="evenodd" clip-rule="evenodd" d="M49.1877 20.0663C49.1877 14.7848 52.9516 10.802 57.9429 10.802C63.12 10.802 66.5985 14.5251 66.5985 20.0663C66.5985 25.5776 63.12 29.2805 57.9429 29.2805C52.9516 29.2805 49.1877 25.3192 49.1877 20.0663ZM58.1424 33.4021C61.1325 33.4021 63.9779 32.4009 66.0994 30.6284V33.0002H70.1443V7.08231H66.0994V9.46613C63.9401 7.68616 61.0934 6.68042 58.1424 6.68042C54.4817 6.68042 51.1478 8.05124 48.7551 10.5401C46.3935 12.9969 45.0928 16.38 45.0928 20.0662C45.0928 23.7496 46.3936 27.1243 48.7561 29.5684C51.1455 32.0405 54.4789 33.4021 58.1424 33.4021Z" fill="white"/>
</g>
</svg>
