<svg version="1.1" xmlns="http://www.w3.org/2000/svg" xmlns:xlink="http://www.w3.org/1999/xlink">

    <symbol viewBox="0 0 20 20" id="back-link">
        <path d="M13 3L6 10L13 17" stroke-width="2" />
    </symbol>

    <symbol viewBox="0 0 20 20" id="promo-link">
        <path d="M17.1584 11.175L11.1834 17.15C11.0286 17.305 10.8448 17.4279 10.6425 17.5118C10.4402 17.5956 10.2233 17.6388 10.0042 17.6388C9.78522 17.6388 9.56834 17.5956 9.36601 17.5118C9.16368 17.4279 8.97987 17.305 8.82508 17.15L1.66675 9.99999V1.66666H10.0001L17.1584 8.82499C17.4688 9.13726 17.6431 9.55968 17.6431 9.99999C17.6431 10.4403 17.4688 10.8627 17.1584 11.175V11.175Z" stroke-width="1.66667" stroke-linecap="round" stroke-linejoin="round" />
        <path d="M5.83325 5.83334H5.842" stroke-width="1.66667" stroke-linecap="round" stroke-linejoin="round" />
    </symbol>

    <symbol viewBox="0 0 34 34" id="slider-prev">
        <path d="M20 24L13 17L20 10" stroke-width="2" />
    </symbol>

    <symbol viewBox="0 0 34 34" id="slider-next">
        <path d="M14 10L21 17L14 24" stroke-width="2" />
    </symbol>

    <symbol viewBox="0 0 21 19" id="slider-item-2-header">
        <rect x="4.64282" y="5.10718" width="2.92857" height="8.78571" rx="1.46429" />
        <rect x="9.03564" y="0.714355" width="2.92857" height="17.5714" rx="1.46429" />
        <rect x="13.4285" y="5.10718" width="2.92857" height="8.78571" rx="1.46429" />
        <rect x="17.8215" y="8.03589" width="2.92857" height="2.92857" rx="1.46429" />
        <rect x="0.25" y="8.03589" width="2.92857" height="2.92857" rx="1.46429" />
    </symbol>

    <symbol viewBox="0 0 40 40" id="window-close">
        <rect x="25.8379" y="11.8379" width="2.57885" height="21.9202" transform="rotate(45 25.8379 11.8379)" />
        <rect x="27.6621" y="27.3384" width="2.57885" height="21.9202" transform="rotate(135 27.6621 27.3384)" />
    </symbol>

    <symbol viewBox="0 0 20 20" id="btn">
        <path d="M7 17L14 10L7 3" stroke-width="2" />
    </symbol>

    <symbol viewBox="0 0 24 24" id="copy">
        <path d="M20 9H11C9.89543 9 9 9.89543 9 11V20C9 21.1046 9.89543 22 11 22H20C21.1046 22 22 21.1046 22 20V11C22 9.89543 21.1046 9 20 9Z" stroke-width="2" stroke-linecap="round" stroke-linejoin="round" />
        <path d="M5 15H4C3.46957 15 2.96086 14.7893 2.58579 14.4142C2.21071 14.0391 2 13.5304 2 13V4C2 3.46957 2.21071 2.96086 2.58579 2.58579C2.96086 2.21071 3.46957 2 4 2H13C13.5304 2 14.0391 2.21071 14.4142 2.58579C14.7893 2.96086 15 3.46957 15 4V5" stroke-width="2" stroke-linecap="round" stroke-linejoin="round" />
    </symbol>

    <symbol viewBox="0 0 24 24" id="reload">
        <path d="M23 4V10H17" stroke-width="2" stroke-linecap="round" stroke-linejoin="round" />
        <path d="M20.4899 15C19.8399 16.8399 18.6094 18.4187 16.984 19.4985C15.3586 20.5783 13.4263 21.1006 11.4783 20.9866C9.53026 20.8726 7.67203 20.1286 6.18363 18.8667C4.69524 17.6047 3.6573 15.8932 3.22625 13.9901C2.79519 12.0869 2.99436 10.0952 3.79374 8.31508C4.59313 6.53496 5.94942 5.06288 7.65823 4.12065C9.36705 3.17843 11.3358 2.81711 13.2678 3.09116C15.1999 3.3652 16.9905 4.25975 18.3699 5.64001L22.9999 10" stroke-width="2" stroke-linecap="round" stroke-linejoin="round" />
    </symbol>

</svg>