<svg width="323" height="77" viewBox="0 0 323 77" fill="none" xmlns="http://www.w3.org/2000/svg">
<path fill-rule="evenodd" clip-rule="evenodd" d="M295.233 48.6014C295.233 51.4048 292.959 53.6788 290.155 53.6788C287.352 53.6788 285.078 51.4048 285.078 48.6014C285.078 45.7966 287.352 43.5233 290.155 43.5233C292.959 43.5233 295.233 45.7966 295.233 48.6014Z" stroke="#FEFEFE" stroke-width="0.628187"/>
<path fill-rule="evenodd" clip-rule="evenodd" d="M289.52 47.4673H290.895C291.817 47.4247 292.026 47.0228 292.026 46.5667C292.026 46.1068 291.817 45.7056 290.895 45.6662H289.52V47.4673ZM289.538 48.1563V50.7772H288.705V44.9741H290.851C291.86 44.9741 292.9 45.2799 292.9 46.4307C292.9 47.1287 292.466 47.6667 291.767 47.826V47.8415C292.49 48.0137 292.591 48.3827 292.683 49.0336C292.774 49.6109 292.841 50.2302 293.057 50.7772H292.167C292.091 50.4302 291.993 50.0535 291.948 49.7077C291.885 49.1858 291.885 48.7104 291.61 48.4227C291.368 48.1563 291.037 48.1808 290.702 48.1563H289.538Z" fill="#FEFEFE"/>
<mask id="mask0_51_311" style="mask-type:alpha" maskUnits="userSpaceOnUse" x="0" y="0" width="323" height="77">
<path fill-rule="evenodd" clip-rule="evenodd" d="M0 76.1658H322.798V0H0V76.1658Z" fill="white"/>
</mask>
<g mask="url(#mask0_51_311)">
<path fill-rule="evenodd" clip-rule="evenodd" d="M93.5752 44.9741H109.534V48.2294H103.669V64.5596H99.4399V48.2294H93.5752V44.9741Z" fill="#FEFEFE"/>
<path fill-rule="evenodd" clip-rule="evenodd" d="M122.114 42.4189H124.951V39.171H122.114V42.4189ZM117.33 42.4189H120.167V39.171H117.33V42.4189ZM129.845 45.175V57.5082C129.845 62.7473 126.007 65.2851 121.14 65.2851C116.273 65.2851 112.435 62.7473 112.435 57.5082V45.175H116.747V55.8716C116.747 59.2007 116.913 62.2289 121.14 62.2289C125.367 62.2289 125.535 59.2007 125.535 55.8716V45.175H129.845Z" fill="#FEFEFE"/>
<path fill-rule="evenodd" clip-rule="evenodd" d="M132.746 44.9741H137.468L142.721 60.4091H142.777L148.058 44.9741H152.332L144.9 64.5596H140.178L132.746 44.9741Z" fill="#FEFEFE"/>
<path fill-rule="evenodd" clip-rule="evenodd" d="M158.677 53.383H163.255C166.334 53.2487 167.028 51.8917 167.028 50.3448C167.028 48.7985 166.334 47.4428 163.255 47.3065H158.677V53.383ZM158.733 55.7167V64.5596H155.959V44.9741H163.117C166.473 44.9741 169.94 46.0056 169.94 49.8842C169.94 52.2443 168.498 54.0612 166.167 54.6044V54.6587C168.581 55.2284 168.914 56.4769 169.219 58.6736C169.524 60.6261 169.746 62.7156 170.467 64.5596H167.5C167.25 63.3944 166.917 62.1188 166.778 60.9516C166.556 59.189 166.556 57.5878 165.64 56.6125C164.836 55.7167 163.726 55.798 162.617 55.7167H158.733Z" fill="#FEFEFE"/>
<path fill-rule="evenodd" clip-rule="evenodd" d="M174.819 64.5596V44.9741H177.371V52.7604H177.425C178.392 51.2413 179.842 50.5359 181.804 50.5359C185.323 50.5359 186.425 52.8961 186.425 55.3375V64.5596H183.873V56.504C183.873 54.1161 183.255 52.5705 180.864 52.5163C179.842 52.4891 178.285 53.2758 177.801 54.4145C177.209 55.8258 177.371 56.8011 177.371 57.5613V64.5596H174.819Z" fill="#FEFEFE"/>
<path fill-rule="evenodd" clip-rule="evenodd" d="M199.668 56.7224C199.722 54.4309 198.689 52.6589 196.191 52.6589C194.046 52.6589 192.769 54.4854 192.769 56.7224H199.668ZM192.768 58.5217C192.578 60.9209 193.556 63.4033 196.191 63.4033C198.201 63.4033 199.206 62.6124 199.504 60.6209H202.221C201.813 63.7305 199.423 65.285 196.163 65.285C191.79 65.285 190.052 62.1754 190.052 58.1399C190.052 54.131 192.062 50.7772 196.381 50.7772C200.455 50.859 202.384 53.4498 202.384 57.2392V58.5217H192.768Z" fill="#FEFEFE"/>
<path fill-rule="evenodd" clip-rule="evenodd" d="M206.01 48.601H208.912V45.6995H206.01V48.601Z" fill="#FEFEFE"/>
<path fill-rule="evenodd" clip-rule="evenodd" d="M206.01 65.2849H208.912V51.5026H206.01V65.2849Z" fill="#FEFEFE"/>
<path fill-rule="evenodd" clip-rule="evenodd" d="M215.889 53.2749H215.945C216.849 51.5069 218.825 50.7772 220.234 50.7772C221.222 50.7772 225.596 51.0298 225.596 55.5474V65.285H222.915V56.4181C222.915 54.0874 221.928 52.8259 219.67 52.8259C219.67 52.8259 218.203 52.7417 217.074 53.8629C216.679 54.2565 215.945 54.8739 215.945 57.6242V65.285H213.264V51.1982H215.889V53.2749Z" fill="#FEFEFE"/>
<path fill-rule="evenodd" clip-rule="evenodd" d="M229.223 64.5596H232.124V44.9741H229.223V64.5596Z" fill="#FEFEFE"/>
<path fill-rule="evenodd" clip-rule="evenodd" d="M242.11 58.2215C240.54 58.3033 238.457 58.876 238.457 60.8669C238.457 62.5577 239.621 63.4031 241.135 63.4031C244.165 63.4031 244.734 60.7578 244.68 58.2215H242.11ZM244.68 56.4224C244.68 54.0491 244.544 52.659 241.812 52.659C240.513 52.659 239.296 53.4226 239.269 54.84H236.564C236.699 51.8401 239.025 50.7772 241.704 50.7772C244.49 50.7772 247.251 51.622 247.251 55.44V61.9851C247.251 62.5851 247.278 63.7305 247.358 64.8753H245.627C245.383 64.8753 244.923 65.0123 244.896 64.685C244.842 64.0564 244.788 63.4578 244.761 62.8312H244.707C243.868 64.548 242.353 65.285 240.486 65.285C238.132 65.285 235.751 64.0564 235.751 61.3852C235.751 57.5399 239.133 56.4224 242.353 56.4224H244.68Z" fill="#FEFEFE"/>
<path fill-rule="evenodd" clip-rule="evenodd" d="M254.334 53.2754H254.391C255.294 51.5068 257.27 50.7772 258.68 50.7772C259.668 50.7772 264.042 51.0305 264.042 55.5477V65.285H261.36V56.4183C261.36 54.0878 260.373 52.8264 258.115 52.8264C258.115 52.8264 256.649 52.7422 255.52 53.8633C255.124 54.2568 254.391 54.8742 254.391 57.6242V65.285H251.71V51.1988H254.334V53.2754Z" fill="#FEFEFE"/>
<path fill-rule="evenodd" clip-rule="evenodd" d="M273.484 63.4662C276.594 63.4662 277.323 60.5167 277.323 57.9269C277.323 55.419 276.405 52.4433 273.484 52.4433C270.403 52.4433 269.647 55.3363 269.647 57.9269C269.647 60.5167 270.592 63.4662 273.484 63.4662ZM277.296 44.9741H279.865V62.4182C279.865 63.2456 279.946 64.0711 280 64.8716H277.377L277.296 62.8054V62.6676H277.242C276.324 64.5954 274.539 65.285 272.566 65.285C268.539 65.285 266.943 61.5094 266.943 57.9543C266.943 54.2063 268.809 50.6237 273.026 50.6237C274.756 50.6237 276.459 51.2582 277.242 52.9117H277.296V44.9741Z" fill="#FEFEFE"/>
<path fill-rule="evenodd" clip-rule="evenodd" d="M79.4594 72.4098L76.205 66.7358C73.0766 66.1899 69.8376 65.8938 66.5598 65.8938C61.9771 65.8938 57.5571 66.4585 53.3166 67.5577C49.1155 68.6657 44.6502 69.2559 40.0888 69.2559C38.4602 69.2559 36.8844 69.1867 35.3226 69.0262L53.3059 37.6616L64.1834 56.5811C60.4339 56.7469 56.8386 57.2875 53.3166 58.196C50.7701 58.8547 48.1501 59.3234 45.4614 59.59L42.1857 65.2995C46.0052 65.1491 49.7493 64.5703 53.3166 63.6719C57.5551 62.5687 61.9731 61.9979 66.5551 61.9979C68.9803 61.9979 71.4141 62.1611 73.7618 62.4746L70.3153 56.469L61.406 40.9377L53.3166 26.8394L26.8396 72.9913C31.0641 74.1536 35.498 74.715 40.0848 74.715C44.6482 74.715 49.1155 74.1536 53.3166 72.9913C57.5551 71.9371 61.9731 71.3301 66.5551 71.3301C71.1179 71.3301 75.5545 71.9371 79.793 72.9913L79.4594 72.4098Z" fill="#0071BE"/>
</g>
</svg>
