<svg width="61" height="61" viewBox="0 0 61 61" fill="none" xmlns="http://www.w3.org/2000/svg">
<path d="M32.4142 17.5858C31.6332 16.8047 30.3668 16.8047 29.5858 17.5858L16.8579 30.3137C16.0768 31.0948 16.0768 32.3611 16.8579 33.1421C17.6389 33.9232 18.9052 33.9232 19.6863 33.1421L31 21.8284L42.3137 33.1421C43.0948 33.9232 44.3611 33.9232 45.1421 33.1421C45.9232 32.3611 45.9232 31.0948 45.1421 30.3137L32.4142 17.5858ZM33 42L33 19L29 19L29 42L33 42Z" fill="black"/>
<path d="M32.4142 17.5858C31.6332 16.8047 30.3668 16.8047 29.5858 17.5858L16.8579 30.3137C16.0768 31.0948 16.0768 32.3611 16.8579 33.1421C17.6389 33.9232 18.9052 33.9232 19.6863 33.1421L31 21.8284L42.3137 33.1421C43.0948 33.9232 44.3611 33.9232 45.1421 33.1421C45.9232 32.3611 45.9232 31.0948 45.1421 30.3137L32.4142 17.5858ZM33 42L33 19L29 19L29 42L33 42Z" fill="url(#paint0_linear_51_1303)"/>
<defs>
<linearGradient id="paint0_linear_51_1303" x1="31.0025" y1="39.0589" x2="40.5959" y2="28.6392" gradientUnits="userSpaceOnUse">
<stop stop-color="#FC517E"/>
<stop offset="1" stop-color="#FCA362"/>
</linearGradient>
</defs>
</svg>
