<svg width="62" height="62" viewBox="0 0 62 62" fill="none" xmlns="http://www.w3.org/2000/svg">
<path d="M22.0862 19.5874C20.9816 19.5874 20.0862 20.4828 20.0862 21.5874L20.0862 39.5874C20.0862 40.6919 20.9816 41.5874 22.0862 41.5874C23.1907 41.5874 24.0862 40.6919 24.0862 39.5874L24.0862 23.5874H40.0862C41.1907 23.5874 42.0862 22.6919 42.0862 21.5874C42.0862 20.4828 41.1907 19.5874 40.0862 19.5874L22.0862 19.5874ZM39.7638 36.4366L23.5004 20.1732L20.6719 23.0016L36.9354 39.265L39.7638 36.4366Z" fill="black"/>
<path d="M22.0862 19.5874C20.9816 19.5874 20.0862 20.4828 20.0862 21.5874L20.0862 39.5874C20.0862 40.6919 20.9816 41.5874 22.0862 41.5874C23.1907 41.5874 24.0862 40.6919 24.0862 39.5874L24.0862 23.5874H40.0862C41.1907 23.5874 42.0862 22.6919 42.0862 21.5874C42.0862 20.4828 41.1907 19.5874 40.0862 19.5874L22.0862 19.5874ZM39.7638 36.4366L23.5004 20.1732L20.6719 23.0016L36.9354 39.265L39.7638 36.4366Z" fill="url(#paint0_linear_134_1966)"/>
<path d="M22.0862 19.5874C20.9816 19.5874 20.0862 20.4828 20.0862 21.5874L20.0862 39.5874C20.0862 40.6919 20.9816 41.5874 22.0862 41.5874C23.1907 41.5874 24.0862 40.6919 24.0862 39.5874L24.0862 23.5874H40.0862C41.1907 23.5874 42.0862 22.6919 42.0862 21.5874C42.0862 20.4828 41.1907 19.5874 40.0862 19.5874L22.0862 19.5874ZM39.7638 36.4366L23.5004 20.1732L20.6719 23.0016L36.9354 39.265L39.7638 36.4366Z" fill="url(#paint1_linear_134_1966)"/>
<defs>
<linearGradient id="paint0_linear_134_1966" x1="36.2717" y1="35.7693" x2="35.6874" y2="21.618" gradientUnits="userSpaceOnUse">
<stop stop-color="#FC517E"/>
<stop offset="1" stop-color="#FCA362"/>
</linearGradient>
<linearGradient id="paint1_linear_134_1966" x1="36.2717" y1="35.7693" x2="35.6874" y2="21.618" gradientUnits="userSpaceOnUse">
<stop stop-color="#21AFF5"/>
<stop offset="1" stop-color="#DE68FB"/>
</linearGradient>
</defs>
</svg>
