<svg width="61" height="62" viewBox="0 0 61 62" fill="none" xmlns="http://www.w3.org/2000/svg">
<path d="M21.4538 19.5871C20.3493 19.5871 19.4538 20.4826 19.4538 21.5871L19.4538 39.5871C19.4538 40.6917 20.3493 41.5871 21.4538 41.5871C22.5584 41.5871 23.4538 40.6917 23.4538 39.5871L23.4538 23.5871H39.4538C40.5584 23.5871 41.4538 22.6917 41.4538 21.5871C41.4538 20.4826 40.5584 19.5871 39.4538 19.5871L21.4538 19.5871ZM39.1315 36.4364L22.868 20.1729L20.0396 23.0013L36.3031 39.2648L39.1315 36.4364Z" fill="black"/>
<path d="M21.4538 19.5871C20.3493 19.5871 19.4538 20.4826 19.4538 21.5871L19.4538 39.5871C19.4538 40.6917 20.3493 41.5871 21.4538 41.5871C22.5584 41.5871 23.4538 40.6917 23.4538 39.5871L23.4538 23.5871H39.4538C40.5584 23.5871 41.4538 22.6917 41.4538 21.5871C41.4538 20.4826 40.5584 19.5871 39.4538 19.5871L21.4538 19.5871ZM39.1315 36.4364L22.868 20.1729L20.0396 23.0013L36.3031 39.2648L39.1315 36.4364Z" fill="url(#paint0_linear_51_379)"/>
<defs>
<linearGradient id="paint0_linear_51_379" x1="35.6394" y1="35.7691" x2="35.0551" y2="21.6178" gradientUnits="userSpaceOnUse">
<stop stop-color="#FC517E"/>
<stop offset="1" stop-color="#FCA362"/>
</linearGradient>
</defs>
</svg>
